<?xml version="1.0" encoding="UTF-8" standalone="no"?>
<svg
   xmlns:dc="http://purl.org/dc/elements/1.1/"
   xmlns:cc="http://creativecommons.org/ns#"
   xmlns:rdf="http://www.w3.org/1999/02/22-rdf-syntax-ns#"
   xmlns:svg="http://www.w3.org/2000/svg"
   xmlns="http://www.w3.org/2000/svg"
   viewBox="0 0 648 648.01331"
   height="648.01331"
   width="648"
   xml:space="preserve"
   id="svg2"
   version="1.1"><metadata
     id="metadata8"><rdf:RDF><cc:Work
         rdf:about=""><dc:format>image/svg+xml</dc:format><dc:type
           rdf:resource="http://purl.org/dc/dcmitype/StillImage" /></cc:Work></rdf:RDF></metadata><defs
     id="defs6" /><g
     transform="matrix(1.3333333,0,0,-1.3333333,0,648.01333)"
     id="g10"><g
       transform="scale(0.1)"
       id="g12"><path
         id="path14"
         style="fill:#3bb83d;fill-opacity:1;fill-rule:nonzero;stroke:none"
         d="M 4860.04,971.898 C 4860.04,435.219 4424.97,0 3887.87,0 H 971.898 C 435.211,0 0.00390625,435.219 0.00390625,971.898 V 3888 c 0,536.89 435.20709375,972.11 971.89409375,972.11 H 3887.87 c 537.1,0 972.17,-435.22 972.17,-972.11 V 971.898" /><path
         id="path16"
         style="fill:#ffffff;fill-opacity:1;fill-rule:nonzero;stroke:none"
         d="m 4510.87,2264.05 c 0,-364.32 -294.36,-659.64 -657.3,-659.64 H 1006.45 c -363.067,0 -657.294,295.32 -657.294,659.64 v 1564.82 c 0,364.31 294.227,659.63 657.294,659.63 h 2847.12 c 362.94,0 657.3,-295.32 657.3,-659.63 V 2264.05" /><path
         id="path18"
         style="fill:#ffffff;fill-opacity:1;fill-rule:nonzero;stroke:none"
         d="m 2942.13,1717.17 -422.97,26.43 v 11.09 l -88.66,-5.51 -89.62,5.57 v -11.21 l -422.97,-26.44 403.95,-657.64 c 0,0 3.59,-6.46 10.88,-15.49 19.56,-33.52 55.63,-56.368 97.2,-56.368 41.44,0 77.24,22.508 96.93,55.688 8.41,9.85 11.29,16.25 11.29,16.25 l 403.97,657.63" /><path
         id="path20"
         style="fill:#f3621f;fill-opacity:1;fill-rule:nonzero;stroke:none"
         d="m 1217.31,2781.66 c -90.38,0 -163.77,73.32 -163.77,163.77 0,90.4 73.39,163.71 163.77,163.71 90.39,0 163.7,-73.31 163.7,-163.71 0,-90.45 -73.31,-163.77 -163.7,-163.77 z m 56.11,560.22 c 0,0 -113.59,0 -216.58,-100.29 v 404.02 H 801.992 V 2584.08 h 257.468 v 83.17 c 0,0 60.72,-109.67 213.96,-109.67 0,0 359.07,13.22 359.07,396.11 0,0 -13.22,388.19 -359.07,388.19" /><path
         id="path22"
         style="fill:#f3621f;fill-opacity:1;fill-rule:nonzero;stroke:none"
         d="m 1714.35,3669.36 v -245.61 c 0,0 116.27,5.29 116.27,-211.28 v -628.39 h 245.56 v 686.49 c 0,0 10.53,398.79 -361.83,398.79" /><path
         id="path24"
         style="fill:#f3621f;fill-opacity:1;fill-rule:nonzero;stroke:none"
         d="m 2676.75,2781.66 c -90.41,0 -163.77,73.32 -163.77,163.77 0,90.4 73.36,163.71 163.77,163.71 90.38,0 163.71,-73.31 163.71,-163.71 0,-90.45 -73.33,-163.77 -163.71,-163.77 z m -0.08,556.92 c 0,0 -420.96,-0.06 -420.96,-393.15 0,0 -13.62,-387.85 420.96,-387.85 0,0 430.67,0.63 430.67,387.85 0,0 14.04,393.15 -430.67,393.15" /><path
         id="path26"
         style="fill:#f3621f;fill-opacity:1;fill-rule:nonzero;stroke:none"
         d="m 3658.06,2781.66 c -90.45,0 -163.7,73.32 -163.7,163.77 0,90.4 73.25,163.71 163.7,163.71 90.38,0 163.71,-73.31 163.71,-163.71 0,-90.45 -73.33,-163.77 -163.71,-163.77 z m 152.28,531.18 v -71.25 c 0,0 -73.24,96.99 -213.81,96.99 0,0 -360.46,15.21 -360.46,-390.46 0,0 -3.99,-377.94 350.54,-377.94 0,0 144.57,-5.92 223.73,97.07 v -59.49 c 0,0 17.91,-186.14 -162.38,-186.14 h -61.35 v -225.73 h 98.99 c 0,0 372.3,-3.99 372.3,398.05 v 718.9 h -247.56" /></g></g></svg>